 0
SECTION
 2
HEADER
 0
ENDSEC
 0
SECTION
 2
TABLES
 0
TABLE
 2
LTYPE
 70
1
 0
LTYPE
 2
CONTINUOUS
 70
0
 3
Solid line
 72
65
 73
0
 40
0.0
 0
ENDTAB
 0
TABLE
 2
LAYER
 70
5
 0
LAYER
 2
PanelRout
 70
0
 62
1
 6
CONTINUOUS
 0
LAYER
 2
Marker
 70
0
 62
6
 6
CONTINUOUS
 0
LAYER
 2
BlockDrill
 70
0
 62
6
 6
CONTINUOUS
 0
LAYER
 2
DrillDowel
 70
0
 62
6
 6
CONTINUOUS
 0
LAYER
 2
RoutBack
 70
0
 62
6
 6
CONTINUOUS
 0
ENDTAB
 0
ENDSEC
 0
SECTION
 2
BLOCKS
 0
ENDSEC
 0
SECTION
 2
ENTITIES
 0
POLYLINE
 8
PanelRout
 66
1
 10
0.0
 20
0.0
 30
0.0
 39
-0.750000
 70
1
 0
VERTEX
 8
PanelRout
 10
0.000000
 20
23.875000
 30
0.0
 0
VERTEX
 8
PanelRout
 10
0.000000
 20
0.000000
 30
0.0
 0
VERTEX
 8
PanelRout
 10
30.500000
 20
0.000000
 30
0.0
 0
VERTEX
 8
PanelRout
 10
30.500000
 20
23.875000
 30
0.0
 0
SEQEND
 8
PanelRout
 0
CIRCLE
 8
Marker
 10
25.500000
 20
23.625000
 30
0.000000
 39
-0.125000
 40
0.078740
 210
 0 
 220
 0 
 230
 1 
 0
CIRCLE
 8
BlockDrill
 10
3.307089
 20
1.337890
 30
0.000000
 39
-0.472441
 40
0.098425
 210
 0 
 220
 0 
 230
 1 
 0
CIRCLE
 8
BlockDrill
 10
4.566931
 20
1.337890
 30
0.000000
 39
-0.472441
 40
0.098425
 210
 0 
 220
 0 
 230
 1 
 0
CIRCLE
 8
BlockDrill
 10
20.567911
 20
1.337890
 30
0.000000
 39
-0.472441
 40
0.098425
 210
 0 
 220
 0 
 230
 1 
 0
CIRCLE
 8
BlockDrill
 10
19.308069
 20
1.337890
 30
0.000000
 39
-0.472441
 40
0.098425
 210
 0 
 220
 0 
 230
 1 
 0
CIRCLE
 8
DrillDowel
 10
0.388000
 20
1.291340
 30
0.000000
 39
-0.500000
 40
0.157481
 210
 0 
 220
 0 
 230
 1 
 0
CIRCLE
 8
DrillDowel
 10
0.388000
 20
3.811020
 30
0.000000
 39
-0.500000
 40
0.157481
 210
 0 
 220
 0 
 230
 1 
 0
CIRCLE
 8
DrillDowel
 10
0.388000
 20
7.590550
 30
0.000000
 39
-0.500000
 40
0.157481
 210
 0 
 220
 0 
 230
 1 
 0
CIRCLE
 8
DrillDowel
 10
0.388000
 20
10.110230
 30
0.000000
 39
-0.500000
 40
0.157481
 210
 0 
 220
 0 
 230
 1 
 0
CIRCLE
 8
DrillDowel
 10
0.388000
 20
13.889760
 30
0.000000
 39
-0.500000
 40
0.157481
 210
 0 
 220
 0 
 230
 1 
 0
CIRCLE
 8
DrillDowel
 10
0.388000
 20
16.409450
 30
0.000000
 39
-0.500000
 40
0.157481
 210
 0 
 220
 0 
 230
 1 
 0
CIRCLE
 8
DrillDowel
 10
0.388000
 20
20.188970
 30
0.000000
 39
-0.500000
 40
0.157481
 210
 0 
 220
 0 
 230
 1 
 0
CIRCLE
 8
DrillDowel
 10
0.388000
 20
22.708660
 30
0.000000
 39
-0.500000
 40
0.157481
 210
 0 
 220
 0 
 230
 1 
 0
CIRCLE
 8
DrillDowel
 10
30.112000
 20
1.291340
 30
0.000000
 39
-0.500000
 40
0.157481
 210
 0 
 220
 0 
 230
 1 
 0
CIRCLE
 8
DrillDowel
 10
30.112000
 20
3.811020
 30
0.000000
 39
-0.500000
 40
0.157481
 210
 0 
 220
 0 
 230
 1 
 0
CIRCLE
 8
DrillDowel
 10
30.112000
 20
22.583660
 30
0.000000
 39
-0.500000
 40
0.157481
 210
 0 
 220
 0 
 230
 1 
 0
CIRCLE
 8
DrillDowel
 10
30.112000
 20
20.063980
 30
0.000000
 39
-0.500000
 40
0.157481
 210
 0 
 220
 0 
 230
 1 
 0
CIRCLE
 8
BlockDrill
 10
25.975000
 20
1.251890
 30
0.000000
 39
-0.472441
 40
0.098425
 210
 0 
 220
 0 
 230
 1 
 0
CIRCLE
 8
BlockDrill
 10
25.975000
 20
17.629840
 30
0.000000
 39
-0.472441
 40
0.098425
 210
 0 
 220
 0 
 230
 1 
 0
CIRCLE
 8
BlockDrill
 10
12.140630
 20
2.000000
 30
0.000000
 39
-0.472441
 40
0.098425
 210
 0 
 220
 0 
 230
 1 
 0
CIRCLE
 8
BlockDrill
 10
10.880787
 20
2.000000
 30
0.000000
 39
-0.472441
 40
0.098425
 210
 0 
 220
 0 
 230
 1 
 0
CIRCLE
 8
BlockDrill
 10
9.620944
 20
2.000000
 30
0.000000
 39
-0.472441
 40
0.098425
 210
 0 
 220
 0 
 230
 1 
 0
CIRCLE
 8
BlockDrill
 10
8.361101
 20
2.000000
 30
0.000000
 39
-0.472441
 40
0.098425
 210
 0 
 220
 0 
 230
 1 
 0
CIRCLE
 8
BlockDrill
 10
7.101258
 20
2.000000
 30
0.000000
 39
-0.472441
 40
0.098425
 210
 0 
 220
 0 
 230
 1 
 0
CIRCLE
 8
BlockDrill
 10
5.841415
 20
2.000000
 30
0.000000
 39
-0.472441
 40
0.098425
 210
 0 
 220
 0 
 230
 1 
 0
CIRCLE
 8
BlockDrill
 10
13.400473
 20
2.000000
 30
0.000000
 39
-0.472441
 40
0.098425
 210
 0 
 220
 0 
 230
 1 
 0
CIRCLE
 8
BlockDrill
 10
14.660316
 20
2.000000
 30
0.000000
 39
-0.472441
 40
0.098425
 210
 0 
 220
 0 
 230
 1 
 0
CIRCLE
 8
BlockDrill
 10
15.920159
 20
2.000000
 30
0.000000
 39
-0.472441
 40
0.098425
 210
 0 
 220
 0 
 230
 1 
 0
CIRCLE
 8
BlockDrill
 10
17.180002
 20
2.000000
 30
0.000000
 39
-0.472441
 40
0.098425
 210
 0 
 220
 0 
 230
 1 
 0
CIRCLE
 8
BlockDrill
 10
18.439845
 20
2.000000
 30
0.000000
 39
-0.472441
 40
0.098425
 210
 0 
 220
 0 
 230
 1 
 0
CIRCLE
 8
BlockDrill
 10
12.140630
 20
21.375000
 30
0.000000
 39
-0.472441
 40
0.098425
 210
 0 
 220
 0 
 230
 1 
 0
CIRCLE
 8
BlockDrill
 10
10.880787
 20
21.375000
 30
0.000000
 39
-0.472441
 40
0.098425
 210
 0 
 220
 0 
 230
 1 
 0
CIRCLE
 8
BlockDrill
 10
9.620944
 20
21.375000
 30
0.000000
 39
-0.472441
 40
0.098425
 210
 0 
 220
 0 
 230
 1 
 0
CIRCLE
 8
BlockDrill
 10
8.361101
 20
21.375000
 30
0.000000
 39
-0.472441
 40
0.098425
 210
 0 
 220
 0 
 230
 1 
 0
CIRCLE
 8
BlockDrill
 10
7.101258
 20
21.375000
 30
0.000000
 39
-0.472441
 40
0.098425
 210
 0 
 220
 0 
 230
 1 
 0
CIRCLE
 8
BlockDrill
 10
5.841415
 20
21.375000
 30
0.000000
 39
-0.472441
 40
0.098425
 210
 0 
 220
 0 
 230
 1 
 0
CIRCLE
 8
BlockDrill
 10
13.400473
 20
21.375000
 30
0.000000
 39
-0.472441
 40
0.098425
 210
 0 
 220
 0 
 230
 1 
 0
CIRCLE
 8
BlockDrill
 10
14.660316
 20
21.375000
 30
0.000000
 39
-0.472441
 40
0.098425
 210
 0 
 220
 0 
 230
 1 
 0
CIRCLE
 8
BlockDrill
 10
15.920159
 20
21.375000
 30
0.000000
 39
-0.472441
 40
0.098425
 210
 0 
 220
 0 
 230
 1 
 0
CIRCLE
 8
BlockDrill
 10
17.180002
 20
21.375000
 30
0.000000
 39
-0.472441
 40
0.098425
 210
 0 
 220
 0 
 230
 1 
 0
CIRCLE
 8
BlockDrill
 10
18.439845
 20
21.375000
 30
0.000000
 39
-0.472441
 40
0.098425
 210
 0 
 220
 0 
 230
 1 
 0
CIRCLE
 8
BlockDrill
 10
25.975000
 20
15.110160
 30
0.000000
 39
-0.472441
 40
0.098425
 210
 0 
 220
 0 
 230
 1 
 0
POLYLINE
 8
RoutBack
 66
1
 10
0.0
 20
0.0
 30
0.0
 39
-0.250000
 40
0.250000
 41
0.250000
 70
0
 0
VERTEX
 8
RoutBack
 10
0.000000
 20
23.250000
 30
0.0
 42
0.0
 0
VERTEX
 8
RoutBack
 10
30.500000
 20
23.250000
 30
0.0
 42
0
 0
SEQEND
 8
RoutBack
 0
ENDSEC
 0
EOF
